<?xml version="1.0" encoding="iso-8859-1"?>
<!-- Uploaded to: SVG Repo, www.svgrepo.com, Generator: SVG Repo Mixer Tools -->
<!DOCTYPE svg PUBLIC "-//W3C//DTD SVG 1.1//EN" "http://www.w3.org/Graphics/SVG/1.1/DTD/svg11.dtd">
<svg fill="#000000" height="800px" width="800px" version="1.1" id="Capa_1" xmlns="http://www.w3.org/2000/svg" xmlns:xlink="http://www.w3.org/1999/xlink" 
	 viewBox="0 0 452.541 452.541" xml:space="preserve">
<path d="M390.072,167.889c-0.017-24.684-16.097-47.728-45.284-64.89c-4.778-2.809-9.837-5.387-15.104-7.765L380.836,5.99
	c1.099-1.917,0.436-4.361-1.481-5.46c-1.917-1.099-4.362-0.434-5.459,1.481l-51.621,90.063
	c-24.685-9.812-53.708-15.093-84.078-15.093c-34.522,0-67.295,6.831-93.941,19.381L69.48,10.59
	c-1.452-1.666-3.979-1.838-5.644-0.386c-1.666,1.451-1.838,3.978-0.387,5.644l73.411,84.207c-1.784,0.955-3.539,1.934-5.256,2.944
	c-29.182,17.159-45.261,40.198-45.284,64.878c0,0.017-0.005,0.032-0.005,0.049v193.676c0,24.699,16.083,47.756,45.288,64.925
	c28.536,16.775,66.393,26.015,106.596,26.015c40.2,0,78.054-9.239,106.589-26.015c29.204-17.169,45.287-40.227,45.287-64.925
	V167.925C390.076,167.913,390.072,167.901,390.072,167.889z M203.694,181.195c5.826,0,10.565-4.739,10.565-10.565
	s-4.74-10.565-10.565-10.565c-1.192,0-2.334,0.208-3.404,0.573l-34.592-39.679c21.435-7.268,46.276-11.419,72.492-11.419
	c24.528,0,47.854,3.631,68.312,10.05l-31.594,55.122c-0.457-0.061-0.919-0.099-1.388-0.099c-1.176,0-2.34,0.196-3.457,0.583
	c-2.667,0.923-4.815,2.829-6.048,5.368c-1.233,2.538-1.403,5.405-0.48,8.072c1.473,4.253,5.484,7.11,9.983,7.11h0
	c1.176,0,2.339-0.196,3.458-0.584c5.504-1.906,8.433-7.935,6.527-13.439c-0.387-1.118-0.953-2.135-1.654-3.034l32.381-56.495
	c34.726,12.556,59.862,33.448,66.248,58.075c-10.37,39.904-70.222,70.604-142.282,70.604c-72.058,0-131.909-30.698-142.281-70.601
	c6.104-23.547,29.353-43.678,61.732-56.374l36.615,42c-0.718,1.426-1.132,3.03-1.132,4.732
	C193.13,176.456,197.869,181.195,203.694,181.195z M131.638,232.874c27.581,16.207,63.87,25.349,102.559,25.942v17.588
	c-40.601-0.643-77.052-11.027-102.559-27.237V232.874z M131.638,258.442c27.581,16.204,63.869,25.345,102.559,25.938v133.728
	c-40.599-0.643-77.051-11.026-102.559-27.234V258.442z M131.638,400.146c27.581,16.204,63.869,25.345,102.559,25.938v18.423
	c-40.604-0.643-77.054-11.029-102.559-27.241V400.146z M242.196,426.084c38.689-0.592,74.977-9.733,102.559-25.938v17.121
	c-25.504,16.212-61.955,26.599-102.559,27.24V426.084z M242.196,418.108V284.38c38.689-0.592,74.977-9.733,102.559-25.938v132.432
	C319.248,407.083,282.796,417.466,242.196,418.108z M242.196,276.403v-17.588c38.689-0.593,74.978-9.735,102.559-25.942v16.293
	C319.248,265.377,282.797,275.761,242.196,276.403z M352.755,227.79c13.018-8.91,22.85-19.122,29.141-30.15
	c-1.477,17.221-12.111,33.075-29.141,45.979V227.79z M381.777,162.681c-8.679-15.097-23.917-28.651-44.386-39.19
	c-6.019-3.099-12.427-5.873-19.119-8.347l7.45-12.998C357.701,116.323,379.098,138.061,381.777,162.681z M238.196,84.981
	c29.62,0,57.173,5.189,80.078,14.071l-7.693,13.421c-22.051-7.118-46.912-10.933-72.391-10.933
	c-27.732,0-54.734,4.518-78.173,12.902l-10.339-11.859C174.104,91.559,204.842,84.981,238.196,84.981z M142.213,106.194
	l9.858,11.307c-4.513,1.853-8.89,3.838-13.068,5.99c-20.47,10.54-35.708,24.095-44.386,39.193
	C97.05,140.301,114.952,120.298,142.213,106.194z M123.638,227.79v15.828c-17.032-12.904-27.666-28.759-29.142-45.98
	C100.787,208.667,110.619,218.88,123.638,227.79z M94.316,222.909c6.284,11.144,16.182,21.46,29.322,30.45V385.32
	c-18.388-13.932-29.322-31.302-29.322-50.119V222.909z M94.434,364.818c6.289,11.065,16.145,21.31,29.203,30.245v16.65
	C106.31,398.579,95.603,382.392,94.434,364.818z M352.755,411.713v-16.65c13.058-8.935,22.913-19.18,29.202-30.245
	C380.788,382.393,370.082,398.58,352.755,411.713z M382.076,335.201c0,18.817-10.934,36.187-29.321,50.119V253.358
	c13.139-8.99,23.037-19.306,29.321-30.449V335.201z"/>
</svg>