<?xml version="1.0" encoding="utf-8"?><!-- Uploaded to: SVG Repo, www.svgrepo.com, Generator: SVG Repo Mixer Tools -->
<svg width="800px" height="800px" viewBox="0 0 24 24" fill="none" xmlns="http://www.w3.org/2000/svg">
<path d="M 21 10 C 21 12.2 17 14 12 14 M 21 10 C 21 7.8 17 6 12 6 C 7 6 3 7.8 3 10 M 21 10 V 16 C 21 18.2 17 20 12 20 M 12 14 C 7 14 3 12.2 3 10 M 12 14 V 20 M 3 10 V 16 C 3 18.2 7 20 12 20 M 7 19.3 V 13.3 M 17 19.3 V 13.3 M 12 10 L 20 4" stroke="#000000" stroke-width="2" stroke-linecap="round" stroke-linejoin="round"/>
</svg>