<?xml version="1.0" encoding="iso-8859-1"?>
<svg fill="#000000" height="512" width="512" version="1.1" id="Layer_1" xmlns="http://www.w3.org/2000/svg" xmlns:xlink="http://www.w3.org/1999/xlink" 
	 viewBox="0 0 512 512">
<g>
	<g>
		<path d="M 512 370.8 V 216 h -59.5 V 113 l 50.9 -30.5 l -18.4 -30.6 l -119.1 71.4 l 18.4 30.6 l 32.5 -19.5 v 81.6 h -27.1 c -24.3 -49.3 -75 -83.3 -133.6 -83.3 s -109.4 34 -133.6 83.3 H 95.3 v -81.6 l 32.5 19.5 l 18.4 -30.6 L 27.1 51.9 L 8.7 82.5 l 50.9 30.5 V 216 H 0 v 154.8 h 59.5 v 53.6 H 29.8 v 35.7 h 95.3 v -35.7 H 95.3 v -53.6 h 41.7 c 12.1 16.1 27.5 29.7 45 39.8 l -28.3 49.5 h 41.1 l 20.3 -35.5 c 13 3.7 26.7 5.7 40.8 5.7 s 27.8 -2 40.8 -5.7 l 20.3 35.5 h 41.1 l -28.3 -49.5 c 17.6 -10.1 32.9 -23.7 45 -39.8 h 41.7 v 53.6 h -29.8 v 35.7 h 95.3 v -35.7 h -29.8 v -53.6 H 512 z M 35.7 335.1 v -83.3 h 74.4 c -2 9.6 -3 19.6 -3 29.8 c 0 18.9 3.5 36.9 10 53.6 H 35.7 z M 256 394.6 c -62.4 0 -113.1 -50.7 -113.1 -113.1 S 193.6 168.4 256 168.4 s 113.1 50.7 113.1 113.1 S 318.4 394.6 256 394.6 z M 394.9 335.1 c 6.4 -16.6 10 -34.7 10 -53.6 c 0 -10.2 -1 -20.1 -3 -29.8 h 74.4 V 335.1 H 394.9 z"/>
	</g>
</g>
<g>
	<g>
		<path d="M 166.7 281.5 h 35.7 c 0 -29.5 24 -53.6 53.6 -53.6 v -35.7 C 206.8 192.2 166.7 232.3 166.7 281.5 z"/>
	</g>
</g>
</svg>