<?xml version="1.0" encoding="utf-8"?>
<!-- Svg Vector Icons : http://www.onlinewebfonts.com/icon -->
<!DOCTYPE svg PUBLIC "-//W3C//DTD SVG 1.1//EN" "http://www.w3.org/Graphics/SVG/1.1/DTD/svg11.dtd">
<svg version="1.1" xmlns="http://www.w3.org/2000/svg" xmlns:xlink="http://www.w3.org/1999/xlink" x="0px" y="0px" viewBox="0 0 256 256" enable-background="new 0 0 256 256" xml:space="preserve">
<metadata> Svg Vector Icons : http://www.onlinewebfonts.com/icon </metadata>
<g><g><g><path fill="#000000" d="M178.2,53.9c-0.7,0.3-2.3,1.2-3.5,2c-2.1,1.5-2.7,1.6-8.9,1.9c-16,0.8-29.1,4-32.9,8.1c-1.7,1.8-1.8,5-0.3,6.7c5.1,5.6,24,9.1,50.7,9.2l9.2,0.1l9.4,4.6l9.4,4.7l0.3,2.2c0.4,2.8,1.7,4.9,4.1,6.3l1.8,1.1v37.5v37.6l-10.2,11.3c-5.6,6.2-10.2,11.8-10.2,12.3c0,1.8,1.1,3.1,2.6,3.1c1.2,0,3-1.7,10.9-10.5c5.2-5.8,9.7-10.5,10-10.5c0.3-0.1,5.1,4.7,10.7,10.5c8.4,8.7,10.3,10.5,11.6,10.5c0.8,0,1.9-0.4,2.4-1c2-2.2,1.4-3.1-10.1-14.7l-11.1-11v-37.7v-37.7l1.8-1.1l1.7-1.1l6.3,3.1c3.5,1.8,6.8,3.2,7.4,3.2c1.4,0,2.3-1.3,2.1-3.1c-0.2-1.3-0.9-1.9-6.9-4.9l-6.7-3.5l-0.4-2.4c-0.7-4.8-4.3-7.5-9.4-7.1c-1.7,0.2-3.3,0.6-3.9,1.1c-1.4,1.3-1.9,1.2-7.4-1.5c-5.6-2.6-6.1-2.2,4.6-3.9c14.3-2.2,21.4-6.5,19.2-11.8c-2.3-5.4-14.6-8.7-38.8-10.2c-2.4-0.2-3.4-0.5-4.6-1.6c-0.8-0.8-2.2-1.7-3-1.9C184.2,53.2,179.9,53.2,178.2,53.9z M186.7,60.7c0.6,0.8,1.1,1.8,1.1,2.4c0,1.9,1,3.1,2.6,3.1c1.8,0,2.8-0.9,2.8-2.6c0-1.2,0.1-1.2,4.5-0.9c12,0.9,22.7,2.9,27.7,5.1c3.1,1.3,2.7,1.7-2.6,3.6c-9.7,3.3-25.8,4.8-45.8,4.4c-14-0.3-22.5-1.2-30.6-3.1c-4-1-8.7-2.9-8.7-3.5c0-0.5,4.2-2.3,7.3-3.1c5.6-1.5,20.3-3.5,26.3-3.6c0.2,0,0.5,0.8,0.7,1.6c0.2,1.1,0.8,1.7,1.6,1.9c2.3,0.5,3.5-0.2,3.8-2.5c0.4-2.2,2.4-4.6,4.3-5C183.3,58.3,185.5,59.2,186.7,60.7z M223.4,90c1.2,1.2,1.3,1.6,0.4,3.5c-0.7,1.6-2.1,2.2-3.9,1.7c-1.3-0.3-2.7-2.8-2.2-3.7C219.3,88.7,221.5,88.1,223.4,90z"/><path fill="#000000" d="M112.4,102.4c-5.7,0.8-13,3.3-18.4,6.3c-6.4,3.6-14.9,12.1-18.5,18.5c-6.4,11.5-8.2,25.2-4.9,38c0.8,3.1,4.5,11.4,6.4,14.3c0.9,1.3,0.8,1.5-4.3,10.3c-5.5,9.5-5.8,10.7-3.2,11.9c0.8,0.4,1.6,0.4,2.2,0c0.6-0.3,3.1-4,5.6-8.4l4.6-7.8l3.8,3.5c9.2,8.5,20.5,12.8,33.5,12.8c13-0.1,24.4-4.6,33.5-13.3l3.3-3.1l4.7,8.1c4.8,8.3,6.2,9.7,8.1,8.1c1.9-1.6,1.5-2.6-3.8-11.9l-5.2-9.1l1.2-1.7c2.1-3,5.3-10.6,6.5-15.1c0.6-2.5,1.2-7,1.3-9.9l0.3-5.4h4.4h4.5l0.2,13.4l0.1,13.4l-5.7,6.1c-5.7,6.1-6.6,7.8-5,9.3c1.5,1.5,3.1,0.6,8.2-4.6l5.2-5.2l5.8,5.8c3.1,3.2,6.1,5.8,6.6,5.8c1.2,0,2.7-1.7,2.7-3c0-0.5-2.8-3.8-6.2-7.3l-6.2-6.2v-13.6v-13.6h10.9c11.8,0,12.6-0.2,14.6-2.9c1-1.4,1.1-2.2,1.1-11.2c0-8.9-0.1-9.8-1.1-11.2c-2.2-2.9-1.9-2.9-27.2-2.9h-23.6l-3.9-3.9c-4.6-4.5-9.3-7.9-14.4-10.2C132.1,103,120.8,101.3,112.4,102.4z M131.5,109.9c12.6,4,22,12.2,27.5,23.8c5.6,11.8,5.6,25.8,0,37.5c-4.6,9.8-11.6,16.8-21.3,21.5c-11.8,5.6-25.9,5.6-37.6,0c-9.8-4.6-16.8-11.6-21.3-21.5c-2.8-5.8-3.6-9.6-3.9-17.1c-0.3-8.3,0.9-14,4.4-21.3c5.7-11.6,16.3-20.2,29.1-23.4C114.3,107.9,125.9,108.1,131.5,109.9z M205,135v8.4h-18.5H168l-0.9-3.8c-0.5-2-1.9-5.7-3-8.1c-1.2-2.4-2.1-4.4-2.1-4.6c0-0.1,9.7-0.2,21.6-0.2h21.6L205,135L205,135z"/><path fill="#000000" d="M126.9,170.9c-4.4,1.3-7,4.9-7,9.6c0,5.6,4.1,9.7,9.7,9.7c3.8,0,7.2-2.1,8.9-5.5c1.1-2.1,1-6.8-0.3-9.1C136.3,171.8,131.1,169.7,126.9,170.9z M132.7,177.4c1.7,1.6,1.7,4.4-0.1,6.1c-3.9,3.9-9.6-1.5-6.1-5.9C127.9,175.8,130.8,175.7,132.7,177.4z"/><path fill="#000000" d="M12.8,118.5c-1,0.6-2,1.8-2.3,2.6c-0.4,1.1-0.6,9.8-0.5,30.7l0.2,29.3l1.5,1.5c1.1,1.2,2.1,1.6,4.6,1.8l3.1,0.3l0.2,5.3c0.2,5.7,0.6,6.8,2.6,6.8c2.4,0,2.9-1.2,2.9-7.1v-5.4l4.9,0.2l4.9,0.2l0.1,2.6c0.1,2.6,1.1,4.1,2.9,4.1c1.5,0,2.9-2.1,2.9-4.3v-2.2h5.1h5.1v5.3c0,5.8,0.3,6.6,2.8,6.6c2.1,0,2.6-1.3,2.6-6.9V185l2.4-0.3c2.8-0.3,4.4-1.5,5.4-4c1.2-2.7,1.1-57.2-0.1-59.7c-1.7-3.6-1.5-3.6-26.8-3.6C15.4,117.5,14.5,117.5,12.8,118.5z M59.4,151.3l-0.2,27.9l-1.5,0.2c-1.5,0.2-1.5,0.1-1.5-2.8c0-3.2-0.9-4.6-2.9-4.6c-1.9,0-2.5,1.1-2.5,4.4v3.1H38H25v-2.7c0-3.5-0.7-4.8-2.6-4.8c-2.2,0-2.8,0.9-2.8,4.4v3.1h-2.2h-2.2v-28v-28h22.1h22.1L59.4,151.3z"/></g></g></g>
</svg>