<?xml version="1.0" encoding="iso-8859-1"?>
<!-- Uploaded to: SVG Repo, www.svgrepo.com, Generator: SVG Repo Mixer Tools -->
<svg fill="#000000" height="800px" width="800px" version="1.1" id="Layer_1" xmlns="http://www.w3.org/2000/svg" xmlns:xlink="http://www.w3.org/1999/xlink" 
	 viewBox="0 0 511.999 511.999" xml:space="preserve">
<g>
	<g>
		<path d="M492.733,414.497L318.839,254.118l115.35-125.07c20.71,4.229,42.847-1.64,58.84-17.633
			c25.292-25.291,25.295-66.229,0-91.523c-25.292-25.291-66.228-25.294-91.522,0c-15.946,15.945-21.802,38.207-17.595,58.805
			L256.274,196.415L128.08,78.183c4.28-20.963-1.811-43.02-17.633-58.84c-25.291-25.291-66.228-25.295-91.522,0
			c-25.233,25.233-25.233,66.29,0,91.523c15.809,15.809,37.87,21.914,58.84,17.632l115.897,125.664L19.185,415.079
			c-24.115,22.369-23.64,59.967,0.036,81.802c22.888,21.109,58.09,19.118,78.655-3.18L256.23,322.003
			c168.393,182.584,158.572,172.065,161.028,174.328c22.888,21.109,58.09,19.118,78.655-3.18
			C516.77,470.536,515.349,435.355,492.733,414.497z M425.109,43.494c12.248-12.247,32.07-12.248,44.319,0
			c12.247,12.247,12.249,32.07,0,44.319c-12.385,12.385-32.226,12.092-44.319,0C412.907,75.613,412.877,55.725,425.109,43.494z
			 M399.703,109.54c1.153,1.247,2.393,2.491,3.678,3.678l-109.078,118.27c-4.473-4.124-8.908-8.214-13.413-12.37L399.703,109.54z
			 M87.923,86.133C75.87,99.42,55.212,99.948,42.527,87.264c-12.22-12.22-12.22-32.101-0.001-44.319
			c12.247-12.247,32.069-12.249,44.319,0C98.803,54.904,98.997,73.923,87.923,86.133z M73.34,471.071
			c-8.474,9.187-22.563,9.505-31.489,1.273c-9.051-8.348-9.626-22.433-1.275-31.487c0.373-0.405,0.851-0.881,1.275-1.275
			l174.44-160.884l17.236,18.688L73.34,471.071z M471.376,470.522c-8.828,9.57-23.858,9.583-32.762,0L108.572,112.668
			c1.262-1.166,2.491-2.393,3.678-3.677c5.655,5.216,357.853,330.042,357.853,330.042
			C479.136,447.364,479.708,461.489,471.376,470.522z"/>
	</g>
</g>
</svg>