<?xml version="1.0" encoding="UTF-8"?>
<!--Generator: Apple Native CoreSVG 326-->
<!DOCTYPE svgPUBLIC "-//W3C//DTD SVG 1.1//EN""http://www.w3.org/Graphics/SVG/1.1/DTD/svg11.dtd"><svg version="1.1"
  xmlns="http://www.w3.org/2000/svg" xmlns:xlink="http://www.w3.org/1999/xlink" viewBox="0 0 52.5879 52.2217">
  <g>
    <rect height="52.2217" opacity="0" width="52.5879" x="0" y="0" />
    <path
      d="M23.6572 52.1973L28.5889 52.1973C30.4688 52.1973 31.9336 51.0498 32.3486 49.2432L33.3984 44.6777L34.1797 44.4092L38.1592 46.8506C39.7461 47.8271 41.5771 47.6074 42.9199 46.2646L46.3379 42.8711C47.6807 41.5283 47.9004 39.6729 46.9238 38.1104L44.4336 34.1553L44.7266 33.4229L49.292 32.3486C51.0742 31.9336 52.2461 30.4443 52.2461 28.5889L52.2461 23.7549C52.2461 21.8994 51.0986 20.4346 49.292 19.9951L44.7754 18.8965L44.458 18.1152L46.9482 14.1602C47.9248 12.5977 47.7295 10.7666 46.3623 9.39941L42.9443 5.98145C41.626 4.66309 39.7949 4.41895 38.208 5.39551L34.2285 7.83691L33.3984 7.51953L32.3486 2.9541C31.9336 1.14746 30.4688 0 28.5889 0L23.6572 0C21.7773 0 20.3125 1.14746 19.8975 2.9541L18.8232 7.51953L17.9932 7.83691L14.0381 5.39551C12.4512 4.41895 10.5957 4.66309 9.27734 5.98145L5.88379 9.39941C4.5166 10.7666 4.29688 12.5977 5.29785 14.1602L7.76367 18.1152L7.4707 18.8965L2.9541 19.9951C1.14746 20.4346 0 21.8994 0 23.7549L0 28.5889C0 30.4443 1.17188 31.9336 2.9541 32.3486L7.51953 33.4229L7.78809 34.1553L5.32227 38.1104C4.32129 39.6729 4.56543 41.5283 5.9082 42.8711L9.30176 46.2646C10.6445 47.6074 12.5 47.8271 14.0869 46.8506L18.042 44.4092L18.8232 44.6777L19.8975 49.2432C20.3125 51.0498 21.7773 52.1973 23.6572 52.1973ZM24.0479 48.3887C23.6328 48.3887 23.4131 48.2178 23.3398 47.8271L21.875 41.7725C20.3857 41.4062 18.9941 40.8203 17.9443 40.1611L12.6221 43.4326C12.3291 43.6523 11.9873 43.6279 11.7188 43.3105L8.83789 40.4297C8.56934 40.1611 8.54492 39.8682 8.74023 39.5264L12.0117 34.2529C11.4502 33.2275 10.8154 31.8359 10.4248 30.3467L4.37012 28.9062C3.97949 28.833 3.80859 28.6133 3.80859 28.1982L3.80859 24.1211C3.80859 23.6816 3.95508 23.4863 4.37012 23.4131L10.4004 21.9482C10.791 20.3613 11.5234 18.9209 11.9629 18.0176L8.71582 12.7441C8.49609 12.3779 8.52051 12.085 8.78906 11.792L11.6943 8.95996C11.9873 8.66699 12.2559 8.64258 12.6221 8.83789L17.8955 12.0361C18.9453 11.4502 20.4346 10.8398 21.8994 10.4248L23.3398 4.37012C23.4131 3.97949 23.6328 3.80859 24.0479 3.80859L28.1982 3.80859C28.6133 3.80859 28.833 3.97949 28.8818 4.37012L30.3711 10.4736C31.8848 10.8643 33.2031 11.4746 34.3018 12.0605L39.5996 8.83789C39.9902 8.64258 40.2344 8.66699 40.5518 8.95996L43.4326 11.792C43.7256 12.085 43.7256 12.3779 43.5059 12.7441L40.2588 18.0176C40.7227 18.9209 41.4307 20.3613 41.8213 21.9482L47.876 23.4131C48.2666 23.4863 48.4375 23.6816 48.4375 24.1211L48.4375 28.1982C48.4375 28.6133 48.2422 28.833 47.876 28.9062L41.7969 30.3467C41.4062 31.8359 40.7959 33.2275 40.21 34.2529L43.4814 39.5264C43.6768 39.8682 43.6768 40.1611 43.3838 40.4297L40.5273 43.3105C40.2344 43.6279 39.917 43.6523 39.5996 43.4326L34.2773 40.1611C33.2275 40.8203 31.8604 41.4062 30.3711 41.7725L28.8818 47.8271C28.833 48.2178 28.6133 48.3887 28.1982 48.3887ZM26.123 35.4004C31.2744 35.4004 35.4248 31.25 35.4248 26.0986C35.4248 20.9473 31.2744 16.7969 26.123 16.7969C20.9717 16.7969 16.8213 20.9473 16.8213 26.0986C16.8213 31.25 20.9717 35.4004 26.123 35.4004ZM26.123 31.6162C23.0713 31.6162 20.6055 29.1504 20.6055 26.0986C20.6055 23.0469 23.0713 20.5811 26.123 20.5811C29.1748 20.5811 31.6406 23.0469 31.6406 26.0986C31.6406 29.1504 29.1748 31.6162 26.123 31.6162Z"
      fill="black" fill-opacity="0.85" />
  </g>
</svg>