<?xml version="1.0" encoding="UTF-8"?>
<!--Generator: Apple Native CoreSVG 326-->
<!DOCTYPE svg PUBLIC "-//W3C//DTD SVG 1.1//EN" "http://www.w3.org/Graphics/SVG/1.1/DTD/svg11.dtd">
<svg version="1.1" xmlns="http://www.w3.org/2000/svg" xmlns:xlink="http://www.w3.org/1999/xlink"
  viewBox="0 0 52.9236 46.6553">
  <g>
    <rect height="46.6553" opacity="0" width="52.9236" x="0" y="0" />
    <path
      d="M31.9794 3.34473L50.9247 36.3525C51.5595 37.4268 51.8768 38.623 51.8768 39.7705C51.8768 43.5059 49.3622 46.3867 45.2362 46.3867L7.37001 46.3867C3.21962 46.3867 0.704969 43.5059 0.704969 39.7705C0.704969 38.623 1.02235 37.4512 1.65712 36.3525L9.24527 23.132L12.0521 25.9359L9.03172 31.2012L7.32118 31.2012L5.00184 34.9854L6.86215 34.9832L5.02626 38.1836C4.7577 38.6963 4.66005 39.2822 4.66005 39.7461C4.66005 41.2354 5.70985 42.5537 7.39442 42.5537L45.163 42.5537C46.872 42.5537 47.9462 41.2354 47.9462 39.7461C47.9462 39.2822 47.7997 38.7207 47.5311 38.208L45.6571 34.9388L47.6288 34.9365L45.3095 31.2012L43.5146 31.2012L28.6102 5.2002C28.0975 4.29688 27.1942 3.90625 26.2909 3.90625C25.3876 3.90625 24.4599 4.29688 23.9472 5.2002L17.5069 16.427L14.702 13.6249L20.6024 3.34473C21.872 1.12305 24.0692 0 26.2909 0C28.537 0 30.7343 1.12305 31.9794 3.34473Z"
      fill="black" fill-opacity="0.85" />
    <path
      d="M28.244 12.2314L28.244 27.1529L24.3622 23.2751L24.3622 12.2314C24.3622 11.0107 25.0946 10.2295 26.2909 10.2295C27.5116 10.2295 28.244 11.0107 28.244 12.2314Z"
      fill="black" fill-opacity="0.85" />
    <path
      d="M47.6288 34.9365L5.00184 34.9854L7.32118 31.2012L22.0604 31.2012L25.0458 34.1797L27.8046 31.3965L27.609 31.2012L45.3095 31.2012Z"
      fill="black" fill-opacity="0.85" />
    <path
      d="M25.0458 34.1797L27.8046 31.3965L6.73524 10.3516C5.90516 9.5459 4.83095 9.52148 3.97645 10.3516C3.09755 11.2061 3.14638 12.3291 3.97645 13.1592Z"
      fill="black" fill-opacity="0.85" />
  </g>
</svg>