<?xml version="1.0" encoding="UTF-8"?>
<!--Generator: Apple Native CoreSVG 326-->
<!DOCTYPE svg PUBLIC "-//W3C//DTD SVG 1.1//EN" "http://www.w3.org/Graphics/SVG/1.1/DTD/svg11.dtd">
<svg version="1.1"
  xmlns="http://www.w3.org/2000/svg" xmlns:xlink="http://www.w3.org/1999/xlink" viewBox="0 0 41.2842 41.04">
  <g>
    <rect height="41.04" opacity="0" width="41.2842" x="0" y="0" />
    <path
      d="M4.83398 37.4512C4.83398 39.8682 6.22559 41.0156 7.88574 41.0156C8.61816 41.0156 9.375 40.7715 10.1318 40.3809L38.5742 23.7549C40.6006 22.583 41.2842 21.7773 41.2842 20.5078C41.2842 19.2139 40.6006 18.4326 38.5742 17.2607L10.1318 0.634766C9.375 0.219727 8.61816 0 7.88574 0C6.22559 0 4.83398 1.14746 4.83398 3.56445ZM8.76465 35.7178L8.76465 5.29785C8.76465 4.8584 9.15527 4.66309 9.52148 4.88281L35.6201 20.1172C35.791 20.1904 35.8887 20.3613 35.8887 20.5078C35.8887 20.6543 35.791 20.8008 35.6201 20.8984L9.52148 36.1328C9.15527 36.3525 8.76465 36.1572 8.76465 35.7178Z"
      fill="black" fill-opacity="0.85" />
  </g>
</svg>